#!OML:ASF F:\VICON\USERDATA\INSTALL\rory3\rory3.ASF
:FULLY-SPECIFIED
:DEGREES
1735
root -0.318956 17.6357 -2.25571 24.4783 51.6924 10.2881
lowerback 9.90459 -3.42105 -3.30357
upperback 6.23724 -4.5773 5.74247
thorax 1.7536 -2.45098 8.27771
lowerneck -14.4298 -5.86396 -9.115
upperneck 34.195 -6.81851 4.16529
head 14.7409 -3.34741 2.20247
rclavicle 1.59028e-015 -4.77083e-015
rhumerus 9.67842 -31.9416 -71.8814
rradius 37.724
rwrist -37.0745
rhand -33.0979 -28.2877
rfingers 7.12502
rthumb -6.30873 -58.1737
lclavicle 1.59028e-015 -4.77083e-015
lhumerus 5.56415 -62.9368 89.5021
lradius 71.6579
lwrist 68.8136
lhand -26.4723 22.9994
lfingers 7.12502
lthumb 0.0895706 -667.021
rfemur -45.694 -1.98385 10.7909
rtibia 32.4447
rfoot -3.39334 -3.89657
rtoes 6.34291
lfemur -22.2765 -1.89755 -26.6156
ltibia 25.6283
lfoot -16.1377 -7.25878
ltoes -5.84467
1736
root -0.29425 17.6309 -2.2151 24.7872 51.9599 10.5525
lowerback 9.94587 -3.35162 -3.32161
upperback 6.21374 -4.48541 5.72772
thorax 1.6905 -2.4019 8.27007
lowerneck -14.4693 -5.98747 -9.05165
upperneck 34.2737 -7.04023 4.2461
head 14.807 -3.41929 2.18668
rclavicle -2.54444e-014 -3.65764e-014
rhumerus 10.0895 -31.8543 -72.2184
rradius 37.8144
rwrist -36.5944
rhand -32.7686 -28.1659
rfingers 7.12502
rthumb -5.99083 -58.0612
lclavicle -2.54444e-014 -3.65764e-014
lhumerus 4.41926 -62.1991 90.1521
lradius 71.6975
lwrist 69.2323
lhand -25.8742 25.0313
lfingers 7.12502
lthumb 0.667221 -664.99
rfemur -45.6481 -2.35174 10.9119
rtibia 32.6909
rfoot -3.33213 -3.43577
rtoes 3.848
lfemur -22.1044 -2.11196 -26.5834
ltibia 25.4179
lfoot -16.0798 -7.60009
ltoes -5.23882
1737
root -0.269021 17.6306 -2.17545 25.0129 52.3214 10.653
lowerback 10.0174 -3.32999 -3.18459
upperback 6.13003 -4.44197 5.79126
thorax 1.5491 -2.36985 8.26499
lowerneck -14.3569 -6.06508 -9.00553
upperneck 34.3669 -7.16125 4.21912
head 14.8325 -3.4662 2.1507
rclavicle -6.44062e-014 -2.8625e-014
rhumerus 10.2973 -31.2952 -72.4044
rradius 38.0991
rwrist -36.4732
rhand -32.8834 -27.8962
rfingers 7.12502
rthumb -6.10165 -57.7883
lclavicle -6.44062e-014 -2.8625e-014
lhumerus 3.0738 -61.2608 90.9819
lradius 71.6792
lwrist 69.5498
lhand -24.9769 27.1067
lfingers 7.12502
lthumb 1.53391 -662.919
rfemur -45.6412 -2.49776 10.9938
rtibia 32.9688
rfoot -3.36392 -2.88615
rtoes 3.93295
lfemur -22.0355 -2.34946 -26.4225
ltibia 25.2998
lfoot -16.1045 -7.97001
ltoes -4.71979
1738
root -0.245396 17.633 -2.13441 25.4081 52.84 10.8617
lowerback 9.99972 -3.2909 -3.00928
upperback 6.05317 -4.37113 5.88985
thorax 1.45918 -2.32511 8.26723
lowerneck -14.156 -6.15948 -8.95237
upperneck 34.3275 -7.3143 4.19937
head 14.7781 -3.52544 2.11137
rclavicle 4.37326e-014 -4.45278e-014
rhumerus 10.5974 -30.8677 -72.585
rradius 38.3797
rwrist -36.0486
rhand -33.0899 -27.7642
rfingers 7.12502
rthumb -6.30098 -57.6505
lclavicle 4.37326e-014 -4.45278e-014
lhumerus 1.99677 -60.5027 91.6358
lradius 71.5384
lwrist 69.5464
lhand -23.7129 29.2772
lfingers 7.12502
lthumb 2.75463 -660.761
rfemur -45.6968 -2.68472 11.0261
rtibia 33.1584
rfoot -3.3111 -2.70059
rtoes 6.04597
lfemur -22.0264 -2.70388 -26.261
ltibia 25.0902
lfoot -16.0472 -8.26964
ltoes -4.58401
1739
root -0.224257 17.6397 -2.08829 25.7277 53.2798 11.0476
lowerback 10.0124 -3.19455 -2.93774
upperback 6.00612 -4.23322 5.9846
thorax 1.38185 -2.251 8.32195
lowerneck -13.959 -6.29345 -8.92597
upperneck 34.2082 -7.54761 4.26627
head 14.7003 -3.61147 2.09741
rclavicle 7.87187e-014 -3.18055e-014
rhumerus 10.945 -30.4901 -72.8529
rradius 38.6582
rwrist -35.3862
rhand -33.1126 -28.0748
rfingers 7.12502
rthumb -6.32292 -57.9604
lclavicle 7.87187e-014 -3.18055e-014
lhumerus 0.950337 -59.6984 92.2595
lradius 71.3628
lwrist 69.6218
lhand -22.4399 31.9919
lfingers 7.12502
lthumb 3.98395 -658.066
rfemur -45.7179 -2.82108 11.1115
rtibia 33.2764
rfoot -3.21539 -3.06685
rtoes 8.49603
lfemur -21.942 -2.92345 -26.1141
ltibia 24.8406
lfoot -15.9798 -8.5321
ltoes -4.97786
1740
root -0.204103 17.6462 -2.04151 25.9233 53.6972 11.1516
lowerback 10.1117 -3.18624 -2.77896
upperback 6.01862 -4.20239 6.08723
thorax 1.33189 -2.22949 8.34623
lowerneck -13.9696 -6.36072 -9.06445
upperneck 34.1751 -7.63712 4.37593
head 14.7096 -3.65052 2.1503
rclavicle 3.18055e-014 -4.29375e-014
rhumerus 11.5161 -29.8644 -73.4082
rradius 38.8974
rwrist -34.6045
rhand -32.876 -28.3654
rfingers 7.12502
rthumb -6.09453 -58.2577
lclavicle 3.18055e-014 -4.29375e-014
lhumerus 0.1032 -58.4917 92.6249
lradius 71.0466
lwrist 69.5208
lhand -20.7445 34.7841
lfingers 7.12502
lthumb 5.62099 -655.31
rfemur -45.6655 -2.99355 11.315
rtibia 33.3952
rfoot -3.22621 -3.84134
rtoes 8.43475
lfemur -21.7628 -3.08951 -25.9324
ltibia 24.532
lfoot -15.94 -8.68879
ltoes -6.01416
1741
root -0.188087 17.6497 -1.99274 26.2696 54.1518 11.4055
lowerback 10.1777 -3.17101 -2.55884
upperback 6.08905 -4.15836 6.11153
thorax 1.34686 -2.20037 8.24432
lowerneck -14.1319 -6.43171 -9.06794
upperneck 34.1587 -7.7246 4.38696
head 14.7482 -3.68207 2.13583
rclavicle -4.45278e-014 3.65764e-014
rhumerus 12.1272 -29.1713 -73.9846
rradius 39.0172
rwrist -33.8891
rhand -32.7368 -27.8043
rfingers 7.12502
rthumb -5.96009 -57.7004
lclavicle -4.45278e-014 3.65764e-014
lhumerus -0.547009 -57.4207 92.6786
lradius 70.7361
lwrist 69.0631
lhand -19.0575 37.3534
lfingers 7.12502
lthumb 7.24969 -652.791
rfemur -45.6268 -3.2234 11.4675
rtibia 33.5038
rfoot -3.20132 -4.58183
rtoes 7.35714
lfemur -21.6419 -3.23853 -25.8203
ltibia 24.2221
lfoot -15.8629 -8.91261
ltoes -6.57295
1742
root -0.17206 17.6532 -1.94666 26.6336 54.5339 11.6566
lowerback 9.99165 -2.81302 -2.89246
upperback 6.27618 -3.7059 6.50669
thorax 1.63169 -2.00202 8.82254
lowerneck -14.1062 -6.79344 -9.22513
upperneck 33.8559 -8.17791 4.34556
head 14.6525 -3.89496 2.06181
rclavicle -7.95139e-014 -3.18055e-014
rhumerus 12.8663 -28.8546 -73.7603
rradius 39.0929
rwrist -32.8603
rhand -32.0925 -27.1577
rfingers 7.12502
rthumb -5.33808 -57.0704
lclavicle -7.95139e-014 -3.18055e-014
lhumerus -0.6349 -56.7465 93.1214
lradius 70.4605
lwrist 69.2989
lhand -18.5067 41.0114
lfingers 7.12502
lthumb 7.78129 -649.152
rfemur -45.6615 -3.19683 11.45
rtibia 33.6429
rfoot -3.18535 -5.18355
rtoes 8.71992
lfemur -21.5638 -3.35805 -25.7341
ltibia 23.942
lfoot -15.8185 -9.09058
ltoes -6.90917
1743
root -0.156538 17.6617 -1.9017 26.8143 54.923 11.7036
lowerback 10.37 -2.89365 -2.15176
upperback 6.16467 -3.74319 6.24455
thorax 1.23382 -1.97498 8.13252
lowerneck -14.156 -6.7999 -9.26446
upperneck 33.8835 -8.33486 4.81173
head 14.7187 -3.90435 2.23258
rclavicle -2.70347e-014 -3.65764e-014
rhumerus 13.2972 -28.0631 -74.8262
rradius 39.1093
rwrist -31.189
rhand -31.6624 -27.0626
rfingers 7.12502
rthumb -4.92279 -56.9854
lclavicle -2.70347e-014 -3.65764e-014
lhumerus -1.86268 -55.3718 93.1802
lradius 70.5079
lwrist 70.074
lhand -18.6174 45.7524
lfingers 7.12502
lthumb 7.67444 -644.407
rfemur -45.7026 -3.13094 11.5647
rtibia 33.7975
rfoot -3.1505 -5.44255
rtoes 11.5884
lfemur -21.4829 -3.54011 -25.4887
ltibia 23.7039
lfoot -15.7265 -9.25709
ltoes -6.32946
